<?xml version="1.0" encoding="utf-8"?>
<!-- Generator: Adobe Illustrator 21.1.0, SVG Export Plug-In . SVG Version: 6.00 Build 0)  -->
<svg version="1.1" id="Layer_1" xmlns="http://www.w3.org/2000/svg" xmlns:xlink="http://www.w3.org/1999/xlink" x="0px" y="0px"
	 viewBox="0 0 160 160" style="enable-background:new 0 0 160 160;" xml:space="preserve">
<style type="text/css">
	.st0{fill:#c08fff;}
</style>
<g>
	<path class="st0" d="M139.8,86.3c-2.2-2.8-7.4-7.8-12.8-12.8c-2.4-24.9-13.6-55.9-28.7-66.2l0,0c-11-7.5-25.3-7.5-36.5,0
		C46.1,18,35.3,49.1,32.9,73.6c-5.4,4.9-10.6,9.9-12.7,12.7c-13,16.9,3.7,46.2,4.4,47.4l1.9,3.4l24-15.4c8.3,4.5,18.8,6.7,29.3,6.7
		c10.5,0,21-2.2,29.4-6.7l24.1,15.4l1.9-3.4C136.1,132.5,152.8,103.2,139.8,86.3z M29.2,126.6c-4.4-9.1-10.4-26.4-3.2-35.7
		c1.2-1.5,3.5-3.9,6.3-6.6c0,14.4,3.4,25.4,9.8,31.5c0.5,0.5,1.1,1,1.7,1.5L29.2,126.6z M109.5,113c-1.1,0.8-2.3,1.5-3.5,2.2
		c-1.3,0.7-2.6,1.3-3.9,1.9c-13.1,5.4-31,5.4-44.1,0c-1.4-0.6-2.7-1.2-3.9-1.9c-1.2-0.7-2.4-1.4-3.5-2.2c-1.1-0.8-2.2-1.7-3.2-2.6
		c-5.7-5.5-8.3-17.6-7.2-33.2c0-0.5,0.1-1,0.1-1.5c0.1-1.3,0.2-2.6,0.4-3.9c0.2-1.8,0.5-3.7,0.8-5.5c3.8-23.2,14-45.7,24.6-52.8
		c4.3-2.9,9.2-4.3,14.1-4.3c4.9,0,9.8,1.4,14,4.3c10.5,7.2,20.7,29.6,24.5,52.7c0.3,1.8,0.6,3.7,0.8,5.5c0.2,1.4,0.3,2.8,0.4,4.3
		c0,0.4,0,0.7,0.1,1.1c1.1,15.7-1.5,27.8-7.2,33.3C111.6,111.3,110.6,112.2,109.5,113z M130.7,126.5l-14.6-9.4
		c0.6-0.5,1.1-1,1.6-1.5c6.4-6.1,9.7-17.2,9.8-31.6c2.9,2.7,5.2,5.2,6.4,6.7C141.7,100.9,134.4,119,130.7,126.5z"/>
	<path class="st0" d="M60.8,48.2c-4.1,4.1-5.7,12.7-5.6,20.2c0,0.7,0,1.3,0.1,1.9c0.2,2.7,0.6,6.7,2.1,10.2c0.9,2.1,2.1,4,3.8,5.4
		c3.8,3,11.1,4.5,18.4,4.5c7.3,0,14.6-1.5,18.4-4.5c4.5-3.6,5.5-11.4,5.8-15.7c0.4-7.8-1.1-17.5-5.5-21.9C91,41.1,68,41.1,60.8,48.2
		z M96.3,69.7c-0.3,5.7-1.7,9.3-3,10.3c-4.8,3.9-22.5,3.9-27.5,0c-1.3-1-2.7-4.5-3-10.1c-0.4-7.6,1.4-14.5,3.4-16.4
		c2.1-2.1,7.8-3.2,13.4-3.2s11.3,1.1,13.4,3.2C94.9,55.4,96.7,62,96.3,69.7z"/>
	<path class="st0" d="M90.7,132.9c0,1.3-2.1,5.2-4.8,9.2l-5.3-3.4l-5.6,7.1c-3.5-5.8-6.2-11.2-6.2-12.8h-3.7h-3.7
		c0,5.5,7.8,17.7,10.2,21.3l2.8,4.2l7.9-9.9l5.6,3.6l2.1-2.7c1.9-2.6,8.2-11.3,8.2-16.4h-3.7H90.7z"/>
</g>
</svg>
