<?xml version="1.0" encoding="utf-8"?>
<!-- Generator: Adobe Illustrator 21.1.0, SVG Export Plug-In . SVG Version: 6.00 Build 0)  -->
<svg version="1.1" id="Layer_1" xmlns="http://www.w3.org/2000/svg" xmlns:xlink="http://www.w3.org/1999/xlink" x="0px" y="0px"
	 viewBox="0 0 160 160" style="enable-background:new 0 0 160 160;" xml:space="preserve">
<style type="text/css">
	.st0{fill:#c08fff;}
</style>
<g>
	<path class="st0" d="M139.8,90.3c-2-2.6-6.6-7.1-11.5-11.7c-0.1-1.3-0.1-2.5-0.3-3.9c-2.1-25.2-13.2-58-29.5-69
		c-11.3-7.6-25.8-7.6-37.1,0C45.1,16.8,34.1,49.6,32,74.8c-0.1,1.3-0.2,2.6-0.3,3.9c-5,4.6-9.5,9.1-11.5,11.7
		c-13.2,17.2,3.8,47,4.5,48.3l2,3.4l27.7-17.7c7.7,3.2,16.7,4.8,25.6,4.8c9,0,18-1.6,25.6-4.8l27.7,17.7l2-3.4
		C136.1,137.4,153,107.5,139.8,90.3z M29.4,131.3c-3.7-7.7-11.1-26.1-3.2-36.4c1.1-1.4,3.1-3.5,5.6-5.9c0.7,12.3,4.1,21.7,9.8,27.2
		c1.5,1.5,3.3,2.8,5.1,4.1L29.4,131.3z M106.3,115.7c-1.3,0.7-2.6,1.3-4,1.9c-1.5,0.6-3,1.1-4.5,1.6c-11.1,3.3-24.3,3.3-35.4,0
		c-1.6-0.5-3.1-1-4.5-1.6c-1.4-0.6-2.8-1.2-4-1.9c-2.6-1.4-5-3.1-7-5c-5.2-5-7.9-15.2-7.6-28.7c0-1.7,0.1-3.5,0.2-5.3
		c0-0.5,0.1-0.9,0.1-1.4c0.1-1.3,0.3-2.7,0.4-4c3-25.5,14.2-51.5,25.8-59.4C70,9.1,75,7.6,80,7.6c5,0,10,1.5,14.3,4.4
		c11.6,7.9,22.8,33.9,25.8,59.4c0.2,1.3,0.3,2.7,0.4,4c0,0.5,0.1,0.9,0.1,1.4c0.1,1.8,0.2,3.6,0.2,5.3c0.3,13.4-2.4,23.7-7.6,28.7
		C111.2,112.7,108.9,114.3,106.3,115.7z M130.6,131.3l-17.3-11.1c1.9-1.2,3.6-2.6,5.1-4.1c5.7-5.5,9.1-14.9,9.8-27.2
		c2.5,2.4,4.5,4.5,5.6,5.9C141.7,105.2,134.3,123.6,130.6,131.3z"/>
	<path class="st0" d="M60.6,47.5c-3.9,3.9-5.6,12.1-5.6,19.4c0,0.9,0,1.9,0.1,2.8c0.2,2.9,0.7,7.4,2.4,11.2c0.8,1.9,2,3.5,3.5,4.7
		c3.8,3.1,11.2,4.6,18.6,4.6c7.4,0,14.8-1.5,18.6-4.6c4.6-3.7,5.6-11.6,5.8-15.9c0.4-7.9-1.1-17.8-5.6-22.2
		C91.2,40.3,67.8,40.3,60.6,47.5z M96.6,69.3c-0.3,5.8-1.8,9.5-3.1,10.6c-5,4-23.1,4-28,0c-1.3-1.1-2.8-4.8-3.1-10.6
		c-0.4-7.8,1.4-14.6,3.4-16.6c2.2-2.2,8-3.3,13.7-3.3c5.8,0,11.5,1.1,13.7,3.3C95.2,54.7,97,61.5,96.6,69.3z"/>
	<path class="st0" d="M92.2,142c-0.6,2.5-4.8,5.8-8.6,8v-7.8h-7.4v7.8c-3.7-2.2-8-5.4-8.6-8c-0.1-0.7-0.3-3.2-0.4-5.6
		c-2.6-0.5-5.2-1.1-7.7-2c0.2,4.5,0.4,7.8,0.7,9.2c1.9,8.6,15.9,15.1,18.4,15.9L80,160l1.2-0.4c2.5-0.8,16.5-7.3,18.4-15.9
		c0.3-1.4,0.5-4.7,0.7-9.2c-2.5,0.8-5,1.5-7.7,2C92.6,138.9,92.4,141.3,92.2,142z"/>
</g>
</svg>
