<?xml version="1.0" encoding="utf-8"?>
<!-- Generator: Adobe Illustrator 21.1.0, SVG Export Plug-In . SVG Version: 6.00 Build 0)  -->
<svg version="1.1" id="Layer_1" xmlns="http://www.w3.org/2000/svg" xmlns:xlink="http://www.w3.org/1999/xlink" x="0px" y="0px"
	 viewBox="0 0 160 160" style="enable-background:new 0 0 160 160;" xml:space="preserve">
<style type="text/css">
	.st0{fill:#535353;}
</style>
<g>
	<g>
		<path class="st0" d="M128.1,90c-2-24.3-13.1-56.2-29.5-67.3c-11.3-7.6-25.8-7.6-37.1,0C45,33.9,34,65.7,31.9,90
			c-1.5,18.5,1.9,32.7,9.6,40.1c9,8.6,23.7,12.9,38.5,12.9c14.7,0,29.5-4.3,38.5-12.9C126.2,122.7,129.6,108.5,128.1,90z
			 M46.8,124.7c-6-5.7-8.6-18.1-7.3-34c1.1-13.2,4.8-26.9,9.7-38.2l17.6,30.2l17.3,2.2l8.4,8.5l-12.4,21.4l7.4,20.4
			C72.4,136.9,55.9,133.4,46.8,124.7z M94.3,29c7,4.7,13.7,15.6,18.7,28.8H95.4L83.9,77.2l-12.4-1.6L53.2,44.3
			C57,37.4,61.3,31.9,65.7,29C70,26.1,75,24.6,80,24.6C85,24.6,90,26.1,94.3,29z M93.3,134.2l1.7-0.6l-6.6-18.1l13.5-23.4L90.6,80.7
			l9.1-15.3h15.9c2.5,8.1,4.2,16.8,5,25.3c1.3,15.9-1.3,28.3-7.3,34C108.3,129.4,101.2,132.6,93.3,134.2z"/>
	</g>
</g>
</svg>
