<?xml version="1.0" encoding="utf-8"?>
<!-- Generator: Adobe Illustrator 21.1.0, SVG Export Plug-In . SVG Version: 6.00 Build 0)  -->
<svg version="1.1" id="Layer_1" xmlns="http://www.w3.org/2000/svg" xmlns:xlink="http://www.w3.org/1999/xlink" x="0px" y="0px"
	 viewBox="0 0 24 24" style="enable-background:new 0 0 24 24;" xml:space="preserve">
<style type="text/css">
	.st0{fill:#888788;}
</style>
<g>
	<path class="st0" d="M9.1,21c-0.3,0-0.6-0.3-0.6-0.6l0-2.4c0-0.4,0-0.9,0.2-1.4c0-0.1,0.1-0.2,0.2-0.4c-2.4-0.5-5-1.8-5-6.3
		c0-1.2,0.4-2.4,1.2-3.3C4.7,5.6,4.8,4.4,5.2,3.4C5.3,3.2,5.4,3.1,5.6,3C5.8,3,6.9,2.8,9.2,4.2c1.9-0.5,3.8-0.5,5.7,0
		C17.1,2.8,18.2,3,18.4,3c0.2,0,0.3,0.2,0.4,0.3c0.4,1,0.5,2.2,0.2,3.3c0.8,0.9,1.2,2.1,1.2,3.3c0,4.6-2.6,5.9-5,6.3
		c0.1,0.1,0.1,0.2,0.2,0.4c0.2,0.5,0.2,0.9,0.2,1.4l0,2.4c0,0.3-0.3,0.6-0.6,0.6c-0.3,0-0.6-0.3-0.6-0.6V18c0-0.4,0-0.7-0.1-1
		c-0.1-0.3-0.3-0.6-0.5-0.8c-0.2-0.2-0.2-0.4-0.1-0.6c0.1-0.2,0.3-0.4,0.5-0.4C16.5,15,19,14.1,19,9.9c0-1-0.4-2-1.1-2.7
		c-0.2-0.2-0.2-0.4-0.1-0.6C18,5.8,18.1,5,17.8,4.2c-0.4,0-1.2,0.3-2.5,1.2c-0.1,0.1-0.3,0.1-0.5,0.1C13,4.9,11,4.9,9.2,5.4
		c-0.2,0-0.3,0-0.5-0.1C7.4,4.5,6.6,4.2,6.2,4.2C5.9,5,6,5.8,6.2,6.6c0.1,0.2,0,0.4-0.1,0.6C5.4,7.9,5,8.9,5,10c0,4.1,2.4,5,4.9,5.3
		c0.2,0,0.4,0.2,0.5,0.4c0.1,0.2,0,0.4-0.1,0.6c-0.2,0.2-0.4,0.5-0.5,0.8c-0.1,0.3-0.2,0.6-0.1,0.9l0,2.4C9.6,20.7,9.4,21,9.1,21
		C9.1,21,9.1,21,9.1,21z"/>
</g>
</svg>
