<?xml version="1.0" encoding="utf-8"?>
<!-- Generator: Adobe Illustrator 21.1.0, SVG Export Plug-In . SVG Version: 6.00 Build 0)  -->
<svg version="1.1" id="Layer_1" xmlns="http://www.w3.org/2000/svg" xmlns:xlink="http://www.w3.org/1999/xlink" x="0px" y="0px"
	 viewBox="0 0 74 102" style="enable-background:new 0 0 74 102;" xml:space="preserve">
<style type="text/css">
	.st0{fill:#E0E0DF;}
</style>
<g>
	<g>
		<path class="st0" d="M65.4,46c-0.9-15-7.8-33.4-14.7-40.2C46.6,1.8,42,0,37,0.3C32,0,27.4,1.8,23.4,5.8C16.5,12.6,9.6,31,8.7,46
			c-4.8,1.7-8,4.4-8.2,8.4c-0.3,7.6,2,19.1,5.8,29.2l0.3,0.7l7.2,4l1-1.5c0.6-0.9,1.3-2,2-3.1c1.4-2.2,3-4.7,4.4-6.2
			c-1.5,1-3.2,2.1-4.9,3.3c-1.1,0.7-2.2,1.5-3.3,2.3l-0.4-0.2c0,0,0,0.1-0.1,0.1l-2.7-1.5c-3.5-9.5-5.6-20-5.3-26.9
			c0.1-1.7,1.5-3.1,4.1-4.3c0,0.1,0,0.1,0,0.2c0.1,4.8,1,9,3,11.9c2.6,4.1,6.6,7.1,11.6,9c0.9,0.3,1.8,0.6,2.7,0.9
			c1.2,0.3,2.5,0.6,3.8,0.8c0,0,0,0-0.1,0h0.1c1.8,0.3,3.6,0.4,5.6,0.4c0.6,0,1.1,0,1.7,0c2.5,0.1,4.9,0,7.2-0.4c0,0,0,0,0.1,0l0,0
			c1.3-0.2,2.6-0.5,3.8-0.8c1-0.3,1.9-0.5,2.8-0.9c5-1.9,9-4.9,11.6-9c1.9-3,2.8-7.2,3-11.9c0-0.1,0-0.1,0-0.2
			c2.6,1.2,4.1,2.6,4.1,4.3c0.2,7-1.8,17.5-5.3,26.9L61.5,83c0,0,0-0.1-0.1-0.1L61,83.1c-1.1-0.8-2.2-1.5-3.3-2.3
			c-1.7-1.2-3.4-2.3-4.9-3.2c1.4,1.5,3,3.9,4.3,6.1c0.7,1.1,1.3,2.1,2,3.1l1,1.5l7.2-4l0.3-0.7c3.8-10.1,6.1-21.5,5.8-29.2
			C73.4,50.3,70.1,47.7,65.4,46z M59,60.2c-2.9,4.5-8.1,7.6-14.6,8.7c-2.3,0.4-4.8,0.6-7.4,0.5H37h-0.1c-2.6,0.1-5-0.1-7.3-0.5
			c-6.5-1.1-11.7-4.2-14.6-8.7c-1.7-2.6-2.4-6.6-2.4-11.3v-0.1c0-0.6,0-1.3,0.1-1.9c0-0.7,0.1-1.4,0.1-2.1C14,31.5,19.8,15,26.3,8.6
			C29.5,5.4,33,4,37,4.2H37h0.1C41,4,44.5,5.4,47.8,8.6C54.3,15,60,31.5,61.3,44.8c0.1,0.7,0.1,1.4,0.1,2.1c0,0.6,0,1.3,0.1,1.9v0.1
			C61.5,53.6,60.8,57.6,59,60.2z"/>
		<path class="st0" d="M54.8,35.9c-0.3-1.6-0.9-2.9-1.5-4c-3-4.7-9.1-7.4-16.2-7.1c-7.1-0.3-13.2,2.4-16.2,7.1
			c-0.7,1.1-1.2,2.5-1.5,4V36c-0.2,1.7-0.4,3.4-0.4,4.9c0,0.9,0.1,1.8,0.2,2.7c0.1,0.7,0.1,1.3,0.2,2v0.1v0.1
			c0.1,0.5,0.2,0.9,0.3,1.3c0,0.1,0.1,0.2,0.1,0.3c0.3,0.9,0.7,1.7,1.1,2.4c3,4.7,9.1,7.4,16.2,7.1c0.3,0,0.7,0,1,0
			c6.7,0,12.3-2.6,15.2-7.1c0.4-0.7,0.8-1.5,1.1-2.4c0-0.1,0.1-0.2,0.1-0.3c0.1-0.4,0.3-0.9,0.3-1.3v-0.1v-0.1
			c0.1-0.7,0.2-1.4,0.2-2c0.1-1,0.1-1.9,0.2-2.8C55.1,39.3,54.9,37.6,54.8,35.9L54.8,35.9z M51,43.4C51,44,51,44.7,50.8,45.3v0.1
			c-0.1,0.6-0.3,1.1-0.5,1.5c-0.1,0.1-0.1,0.3-0.2,0.4c-0.1,0.2-0.2,0.4-0.3,0.6c-2.3,3.5-7,5.5-12.7,5.3H37H37
			c-5.7,0.2-10.5-1.7-12.7-5.3c-0.1-0.2-0.2-0.4-0.3-0.6c-0.1-0.1-0.1-0.3-0.2-0.4c-0.2-0.5-0.3-1-0.5-1.5v-0.1
			C23.1,44.6,23,44,23,43.4c-0.1-0.8-0.1-1.6-0.1-2.4c0-1.3,0.1-2.8,0.4-4.3c0.2-1.1,0.6-2,1-2.6c2.3-3.5,7-5.5,12.7-5.3h0.1h0.1
			c5.7-0.2,10.5,1.7,12.7,5.3c0.4,0.7,0.8,1.6,1,2.6c0.2,1.5,0.3,3,0.4,4.3C51.3,41.7,51.1,42.5,51,43.4z"/>
		<path class="st0" d="M48.5,78.8c-0.1,0.4-0.2,0.9-0.5,1.4c-0.5,1.1-1.2,2.4-2,3.6c-0.8,1.4-2,3.2-3.2,4.8
			c-0.3-0.4-0.6-0.8-0.9-1.2l-1.6-2.2l-0.9,2.5c-0.8,2.2-1.7,4.6-2.4,6.4c-0.7-1.8-1.6-4.2-2.4-6.4l-0.9-2.5l-1.6,2.2
			c-0.3,0.5-0.6,0.9-0.9,1.2C30,87,28.8,85.3,28,83.8c-0.8-1.2-1.6-2.5-2-3.6c-0.2-0.5-0.4-1-0.5-1.4c-0.3,0.2-0.5,0.3-0.7,0.5
			C24.1,80,24,80.7,24,81.1c0,2.9,4.7,8.9,6.1,10.7l1.1,1.4l1.1-1.4c0,0,0.2-0.3,0.5-0.7c1.4,3.8,2.8,7.3,2.9,7.4l1.3,3.2l1.3-3.2
			c0,0,1.4-3.5,2.9-7.4c0.3,0.4,0.5,0.6,0.5,0.7l1.1,1.4l1.1-1.4C45.3,90,50,84,50,81.1c0-0.4-0.1-1.1-0.8-1.8
			C49,79.2,48.8,79,48.5,78.8z"/>
	</g>
</g>
</svg>
