<?xml version="1.0" encoding="utf-8"?>
<!-- Generator: Adobe Illustrator 21.1.0, SVG Export Plug-In . SVG Version: 6.00 Build 0)  -->
<svg version="1.1" id="Layer_1" xmlns="http://www.w3.org/2000/svg" xmlns:xlink="http://www.w3.org/1999/xlink" x="0px" y="0px"
	 viewBox="0 0 160 160" style="enable-background:new 0 0 160 160;" xml:space="preserve">
<style type="text/css">
	.st0{fill:#ff9b40;}
</style>
<g>
	<path class="st0" d="M124.1,70.7c1.9-19.3,0.3-42.4-9.6-53.7c-7.7-8.8-20.8-13.8-35-13.3c-14.6,0.5-27.8,6.7-35.4,16.5
		C35.4,31.7,34,52.5,35.9,70.7c-11.1,14.7-14.9,37.8-10.4,63.5l0.8,4.9l30.3-14.2c1.1,1,2.2,1.9,3.3,2.7c0.4,0.3,0.9,0.6,1.4,0.9
		v15.4l-8.3,6.6l4.7,5.9l7.4-5.8l7.4,5.8l4.7-5.9l-8.3-6.6v-12.2c3.7,1.1,7.6,1.6,11.5,1.6c4,0,8-0.6,11.7-1.7v12.2l-8.3,6.6
		l4.7,5.9l7.4-5.8l7.4,5.8l4.7-5.9l-8.3-6.6v-15.5c0.4-0.2,0.8-0.5,1.2-0.7c1-0.7,2-1.5,3-2.4l29.8,13.9l0.8-4.9
		C138.9,108.5,135.1,85.4,124.1,70.7z M32.2,128c-2.3-17.8-0.4-33.8,5.4-45.6c2.8,15.2,7.7,28,13.9,36.6L32.2,128z M102,115.9
		c-0.8,1.1-1.7,2.1-2.6,3c-0.9,0.9-1.9,1.7-2.8,2.4c-0.1,0.1-0.3,0.2-0.4,0.3c-8.8,5.7-23.3,5.6-32-0.2c0,0,0,0-0.1,0
		c-1.1-0.7-2.1-1.6-3.1-2.6c-0.9-0.9-1.7-1.9-2.6-3c-6.3-8.1-11.4-21.8-14-38.1c-0.3-1.6-0.5-3.1-0.7-4.7c-0.2-1.7-0.4-3.4-0.5-5.1
		c-0.1-1.7-0.3-3.4-0.3-5.1c-0.8-16.5,1.8-30.8,7.2-37.9c6.2-8.1,17.3-13.2,29.6-13.6c0.5,0,1.1,0,1.6,0c11.3,0,21.4,4,27.4,10.8
		c6.1,6.9,9.1,22.5,8.3,40.7c-0.1,1.7-0.2,3.4-0.3,5.1c-0.1,1.7-0.3,3.4-0.5,5.1c0,0.4-0.1,0.7-0.1,1.1
		C113.9,91.9,108.6,107.3,102,115.9z M127.8,128l-18.8-8.8c6.7-9.5,11.1-23.5,13.5-36.7C128.2,94.3,130.1,110.3,127.8,128z"/>
	<path class="st0" d="M101.6,38.8c-5.5-5.5-17.5-6-21-6c-3.5,0-15.5,0.4-21,6c-3.2,3.2-5.1,9.2-5.8,15.4c-0.2,1.6-0.3,3.2-0.4,4.8
		c0,1.5,0,3,0,4.4c0.2,3.8,1,10,3.7,14.5c0.7,1.2,1.6,2.3,2.7,3.1c0.6,0.5,1.2,0.9,1.9,1.3c4.5,2.6,11.7,3.9,18.8,3.9
		c6.5,0,12.9-1.1,17.5-3.2c1.2-0.6,2.3-1.2,3.2-2c0.4-0.3,0.8-0.7,1.1-1.1c4-4.4,5.1-12.1,5.3-16.5c0.1-1.2,0.1-2.4,0.1-3.6
		c0-1.6-0.1-3.2-0.3-4.8C106.8,48.5,105,42.2,101.6,38.8z M100.2,63c-0.4,7.1-2.2,11-3.6,12.1c-5.8,4.7-26.1,4.7-31.9,0
		c-1.4-1.2-3.3-5-3.6-12.1c-0.5-8.9,1.6-16.6,3.9-18.9c2.2-2.2,8.6-3.8,15.7-3.8s13.4,1.5,15.7,3.8C98.6,46.4,100.7,54.1,100.2,63z"
		/>
</g>
</svg>
